<?xml version="1.0" standalone="no" ?>
<!DOCTYPE svg PUBLIC "-//W3C//DTD SVG 20010904//EN"
	"http://www.w3.org/TR/2001/REC-SVG-20010904/DTD/svg10.dtd">
<svg
	version="1.0"
	xmlns="http://www.w3.org/2000/svg"
	width="700.000000pt"
	height="700.000000pt"
	viewBox="0 0 700.000000 700.000000"
	preserveAspectRatio="xMidYMid meet"
>
    <metadata>
Created by potrace 1.14, written by Peter Selinger 2001-2017
</metadata>
    <g
		transform="translate(0.000000,700.000000) scale(0.100000,-0.100000)"
		fill="#000000"
		stroke="none"
	>
        <path
			d="M0 3500 l0 -3500 3500 0 3500 0 0 3500 0 3500 -3500 0 -3500 0 0
-3500z m2470 -30 l0 -3000 -710 0 -710 0 0 3000 0 3000 710 0 710 0 0 -3000z
m3160 2996 c0 -2 -380 -608 -845 -1345 l-845 -1341 918 -1633 c506 -897 924
-1642 931 -1654 l12 -23 -818 0 -818 0 -828 1603 -827 1603 817 1397 818 1397
742 0 c409 0 743 -2 743 -4z"
		/>
    </g>
</svg>
